#N canvas 387 30 2173 1368 10;
#X obj 60 127 notein;
#X obj 702 1069 tabread4~ sound3;
#X obj 1122 1189 soundfiler;
#N canvas 0 22 450 278 (subpatch) 0;
#X array sound3 147000 float 2;
#X coords 0 1 147000 -1 200 140 1 0 0;
#X restore 1266 1198 graph;
#X obj 1122 1263 s sampleLength;
#X obj 697 1299 dac~ 1 2;
#X obj 53 363 f;
#X obj 762 1126 hsl 128 15 0 127 0 0 empty empty empty -2 -8 0 10 -262144
-1 -1 10000 1;
#X floatatom 1328 725 5 0 0 0 - - -;
#X obj 211 649 phasor~;
#X obj 755 754 *~;
#X obj 1449 664 r sampleLength;
#X obj 1129 1099 bng 15 250 50 0 empty empty empty 17 7 0 10 -262144
-1 -1;
#X floatatom 1123 1229 5 0 0 0 - - -;
#X obj 1175 1228 print;
#X obj 759 1151 mtof;
#X obj 701 1149 lop~;
#X obj 1552 549 ctlin 2;
#X obj 1555 643 hsl 128 15 0 1 0 0 empty empty empty -2 -8 0 10 -262144
-1 -1 12700 1;
#X obj 1552 578 expr $f1/127;
#X obj 1693 670 r sampleLength;
#X obj 1552 695 expr $f1 * ($f2 - 1) + 1;
#X obj 1013 1129 samplerate~;
#X obj 1013 1153 s sample_rate;
#X obj 1011 1210 r sample_rate;
#X floatatom 1010 1240 5 0 0 0 - - -;
#X obj 1052 1238 print;
#X obj 1629 727 r sample_rate;
#X obj 1548 755 expr $f2 / $f1;
#X obj 622 31 ctlin 1;
#X obj 622 55 / 127;
#X obj 624 82 hsl 128 15 0 1 0 0 empty empty empty -2 -8 0 10 -262144
-1 -1 0 1;
#X obj 621 124 *;
#X obj 636 102 r sampleLength;
#X floatatom 623 154 5 0 0 0 - - -;
#X obj 713 904 +~, f 2;
#X text 1699 640 grain size;
#X obj 863 938 r sampleLength;
#X obj 731 975 expr~ if ($v1 >= $f2 \, $v1 - $f2 \, $v1);
#X obj 192 139 f;
#X floatatom 240 162 5 0 0 0 - - -;
#X obj 192 163 > 0;
#X obj 196 216 bng 15 250 50 0 empty empty empty 17 7 0 10 -262144
-1 -1;
#X obj 192 190 sel 1 0;
#X msg 1129 1128 read -resize AnaPhase12.wav sound3;
#X floatatom 253 624 5 0 0 0 - - -;
#X obj 1377 1097 bng 15 250 50 0 empty empty empty 17 7 0 10 -262144
-1 -1;
#X msg 1371 1128 read -resize 07b01gro072.wav sound3;
#X floatatom 52 414 5 0 0 0 - - -;
#X floatatom 1462 811 5 0 0 0 - - -;
#X obj 53 388 mtof;
#X obj 453 399 f;
#X obj 293 214 bng 15 250 50 0 empty empty empty 17 7 0 10 -262144
-1 -1;
#X text 215 215 on;
#X text 315 212 off;
#X text 819 1057 low pass filter;
#X floatatom 599 480 5 0 0 0 - - -;
#X text 563 335 sample playback rate;
#X obj 144 951 vline~;
#X obj 709 1217 *~;
#X obj 283 829 bng 15 250 50 0 empty empty empty 17 7 0 10 -262144
-1 -1;
#X obj 216 240 s trigger_on;
#X obj 341 238 s trigger_off;
#X obj 503 835 bng 15 250 50 0 empty empty empty 17 7 0 10 -262144
-1 -1;
#X obj 283 807 r trigger_on;
#X floatatom 417 928 5 0 0 0 - - -;
#X obj 421 903 f;
#X obj 268 578 r trigger_on;
#X floatatom 383 856 5 0 0 0 - - -;
#X floatatom 426 857 5 0 0 0 - - -;
#X obj 759 1101 ctlin 4;
#X obj 846 291 ctlin 5;
#X obj 1375 304 ctlin 6;
#X obj 1526 306 ctlin 7;
#X obj 999 296 ctlin 8;
#X obj 417 950 sig~;
#X obj 845 350 expr 2000 * $f1/127;
#X obj 1377 354 expr 2000 * $f1/127;
#X obj 999 346 expr 2000 * $f1/127;
#X obj 175 311 ctlin 20;
#X text 237 309 reverse;
#X floatatom 180 406 5 0 0 0 - - -;
#X obj 176 334 toggle_counter;
#X obj 180 490 expr if($f1 \, $f2 * -1 \, $f2);
#X floatatom 216 522 5 0 0 0 - - -;
#X obj 355 784 loadbang;
#X msg 375 813 1;
#X msg 431 786 loadbang;
#X msg 433 815 0;
#X obj 52 438 sig~;
#X obj 209 577 sig~;
#X obj 152 556 *~;
#X obj 574 435 *;
#X obj 1218 152 s smoothing;
#X obj 259 554 r smoothing;
#X obj 890 133 s playback_speed;
#X obj 847 63 ctlin 3;
#X obj 589 356 r playback_speed;
#X obj 1552 695 expr $f1 * ($f2 - 1) + 1;
#X obj 623 180 s file_pos;
#X obj 291 596 r file_pos;
#X obj 760 888 r file_pos;
#X obj 403 453 f;
#X obj 848 178 s speed_listener;
#X text 862 33 PLAYBACK SPEED;
#X obj 440 335 r speed_listener;
#X obj 843 114 bng 15 250 50 0 empty empty empty 17 7 0 10 -262144
-1 -1;
#X obj 1545 817 s grain_size;
#X obj 476 366 r grain_size;
#X obj 189 359 r grain_size;
#X obj 197 384 bng 15 250 50 0 empty empty empty 17 7 0 10 -262144
-1 -1;
#X obj 277 358 r playback_speed;
#X floatatom 603 387 5 0 0 0 - - -;
#X text 322 620 triggers phasor to restart at file_pos;
#X floatatom 889 157 5 0 0 0 - - -;
#X obj 845 381 s attack;
#X obj 1377 381 s delay;
#X obj 1527 381 s sustain;
#X obj 998 373 s release;
#X obj 78 723 r attack;
#X obj 143 723 r decay;
#X text 271 892 ENVELOPE;
#X text 887 265 ATTACK;
#X text 1408 273 DECAY;
#X text 1564 275 SUSTAIN;
#X text 1044 268 RELEASE;
#X text 1233 34 SMOOTHING;
#X floatatom 1218 130 5 0 0 0 - - -;
#X floatatom 1440 381 5 0 0 0 - - -;
#X floatatom 1599 382 5 0 0 0 - - -;
#X floatatom 1070 373 5 0 0 0 - - -;
#X obj 848 321 hsl 128 15 0 127 0 0 empty empty empty -2 -8 0 10 -262144
-1 -1 100 1;
#X floatatom 914 381 5 0 0 0 - - -;
#X obj 1379 332 hsl 128 15 0 127 0 0 empty empty empty -2 -8 0 10 -262144
-1 -1 0 1;
#X obj 1529 331 hsl 128 15 0 127 0 0 empty empty empty -2 -8 0 10 -262144
-1 -1 0 1;
#X obj 1002 323 hsl 128 15 0 127 0 0 empty empty empty -2 -8 0 10 -262144
-1 -1 12700 1;
#X obj 850 88 hsl 128 15 0 127 0 0 empty empty empty -2 -8 0 10 -262144
-1 -1 1000 1;
#X obj 446 374 bng 15 250 50 0 empty empty empty 17 7 0 10 -262144
-1 -1;
#X text 700 681 mutliply by # samples;
#X text 1013 1060 get current sample rate at loadtime;
#X text 897 994 wraps around to start of array;
#X obj 203 726 r sustain;
#X obj 277 723 r release;
#X obj 959 31 loadbang;
#X msg 909 63 10;
#X obj 1527 353 expr 10000 * $f1/127;
#X msg 76 892 0 0 \, 1 \$1;
#X obj 1014 48 ctlin 21;
#X obj 1012 71 bng 15 250 50 0 empty empty empty 17 7 0 10 -262144
-1 -1;
#X msg 1618 1129 read -resize KeyboardTyping_BW.49776.wav sound3;
#X obj 1618 1097 bng 15 250 50 0 empty empty empty 17 7 0 10 -262144
-1 -1;
#X msg 1552 1267 read -resize OLIVER_75_pop_loop_crush_intro_G.wav
sound3;
#X obj 1562 1240 bng 15 250 50 0 empty empty empty 17 7 0 10 -262144
-1 -1;
#X obj 866 112 expr $f1/ 127 * 0.1 + 0.001;
#X obj 1552 1211 ctlin 18;
#X obj 1618 1065 ctlin 17;
#X obj 1377 1062 ctlin 16;
#X obj 1318 950 bng 15 250 50 0 empty empty empty 17 7 0 10 -262144
-1 -1;
#X msg 1312 981 read -resize NW_IrisLune_130_Vocal_Driving_Me_Crazy_Lofi_Dm.wav
sound3;
#X obj 1318 915 ctlin 19;
#X text 267 418 calculate frequency of playback in hz;
#X obj 193 605 lop~ 100;
#X obj 1217 58 ctlin 7;
#X obj 1220 83 hsl 128 15 0 127 0 0 empty empty empty -2 -8 0 10 -262144
-1 -1 10000 1;
#X obj 1218 105 expr 100 * $f1/127 + 0.01;
#X obj 689 22 loadbang;
#X msg 679 55 0;
#X obj 1105 203 loadbang;
#X msg 908 293 1;
#X msg 1060 297 2000;
#X obj 820 1079 loadbang;
#X msg 819 1103 100;
#X obj 1632 1212 loadbang;
#X text 1366 229 decay + sustain are not currently hooked up \, only
using attack and release for now;
#X obj 912 -32 ctlin 22;
#X obj 911 -7 bng 15 250 50 0 empty empty empty 17 7 0 10 -262144 -1
-1;
#X msg 1275 57 100;
#X obj 1317 45 loadbang;
#X obj 977 209 ctlin 22;
#X obj 976 234 bng 15 250 50 0 empty empty empty 17 7 0 10 -262144
-1 -1;
#X text 983 -26 full reset;
#X text 1051 68 reset speed;
#X obj 1447 1073 loadbang;
#X floatatom 138 372 5 0 0 0 - - -;
#X obj 526 815 r trigger_off;
#X obj 1014 1093 loadbang;
#X msg 1649 607 1;
#X obj 1689 502 loadbang;
#X obj 238 996 expr~ if($v2 \, $v1 \, $v3);
#X obj 501 955 vline~;
#X obj 525 857 r release;
#X obj 500 892 pack f;
#X msg 500 923 1 0 \, 0 \$1;
#X text 720 59 START POSITION;
#X obj 80 833 pack f f f f;
#X text 1706 697 +1 avoids divide by 0;
#X obj 925 481 adc~ 2;
#X obj 871 537 snapshot~;
#X floatatom 872 568 5 0 0 0 - - -;
#X obj 960 590 expr~ $v1 * ($f2 - 1) + 1;
#X obj 1106 550 r sampleLength;
#X obj 1063 621 r sample_rate;
#X obj 976 697 s grain_size;
#X obj 976 650 expr~ $f2 / $v1;
#X obj 892 646 +~;
#X obj 922 623 r sampleLength;
#X obj 852 702 print~ samples:;
#X obj 1679 -111 snapshot~;
#X obj 1220 -111 snapshot~;
#X obj 1388 -112 snapshot~;
#X obj 1556 -114 snapshot~;
#X obj 1333 -23 print;
#X obj 1120 -248 loadbang;
#X obj 1119 -218 tgl 15 0 empty empty empty 17 7 0 10 -262144 -1 -1
1 1;
#X obj 1119 -187 metro 100;
#X obj 1193 -181 clip~ 0 1;
#X obj 1349 -179 clip~ 0 1;
#X obj 1532 -181 clip~ 0 1;
#X obj 1694 -181 clip~ 0 1;
#X obj 1194 -212 expr~ 1 - ($v1 /0.806);
#X obj 1353 -212 expr~ 1 - ($v1 /0.806);
#X obj 1530 -215 expr~ 1 - ($v1 /0.806);
#X obj 1694 -219 expr~ 1 - ($v1 /0.806);
#X obj 1354 -250 adc~ 3 4 5 6 7;
#X obj 1875 -106 snapshot~;
#X obj 1890 -176 clip~ 0 1;
#X obj 1333 -54 pack 0 0 0 0 0;
#X obj 1890 -214 expr~ ($v1 /0.806);
#X obj 264 1223 f;
#X obj 264 1250 + 1;
#X obj 298 1223 % 2;
#X obj 264 1273 sel 1 2;
#X obj 264 1304 bng 15 250 50 0 empty empty empty 17 7 0 10 -262144
-1 -1;
#X text 228 1302 play;
#X msg 292 1304 stop;
#X text 215 1199 toggle;
#X obj 264 1198 sel 0;
#X obj 339 1101 delay 3;
#X obj 237 1069 t b f;
#X msg 309 1139 0;
#X msg 339 1138 1;
#X obj 264 1166 spigot 1;
#X obj 237 1046 r bela_digitalIn13;
#X obj 264 1331 s trigger_on;
#X obj 359 1330 s trigger_off;
#X obj 439 1175 print~ trigger:;
#X obj 439 1011 loadbang;
#X obj 451 1048 tgl 15 0 empty empty empty 17 7 0 10 -262144 -1 -1
1 1;
#X obj 481 1138 metro 100;
#X obj 454 1150 bng 15 250 50 0 empty empty empty 17 7 0 10 -262144
-1 -1;
#X obj 79 -183 s bela_setDigital;
#X msg 74 -210 in 13;
#X obj 74 -240 loadbang;
#X connect 0 0 6 0;
#X connect 0 1 39 0;
#X connect 1 0 16 0;
#X connect 2 0 13 0;
#X connect 2 0 14 0;
#X connect 6 0 50 0;
#X connect 7 0 15 0;
#X connect 9 0 10 0;
#X connect 10 0 35 0;
#X connect 11 0 8 0;
#X connect 12 0 44 0;
#X connect 13 0 4 0;
#X connect 15 0 16 1;
#X connect 16 0 59 1;
#X connect 17 0 19 0;
#X connect 18 0 21 0;
#X connect 19 0 18 0;
#X connect 20 0 21 1;
#X connect 21 0 28 0;
#X connect 21 0 8 0;
#X connect 22 0 23 0;
#X connect 24 0 25 0;
#X connect 24 0 26 0;
#X connect 27 0 28 1;
#X connect 28 0 49 0;
#X connect 28 0 107 0;
#X connect 29 0 30 0;
#X connect 30 0 31 0;
#X connect 31 0 32 0;
#X connect 32 0 34 0;
#X connect 33 0 32 1;
#X connect 34 0 99 0;
#X connect 35 0 38 0;
#X connect 37 0 38 1;
#X connect 38 0 1 0;
#X connect 39 0 40 0;
#X connect 39 0 41 0;
#X connect 41 0 43 0;
#X connect 42 0 61 0;
#X connect 43 0 42 0;
#X connect 43 1 52 0;
#X connect 44 0 2 0;
#X connect 45 0 9 1;
#X connect 46 0 47 0;
#X connect 47 0 2 0;
#X connect 48 0 89 0;
#X connect 50 0 48 0;
#X connect 51 0 92 0;
#X connect 52 0 62 0;
#X connect 58 0 188 0;
#X connect 59 0 5 0;
#X connect 59 0 5 1;
#X connect 60 0 68 0;
#X connect 60 0 194 0;
#X connect 63 0 69 0;
#X connect 63 0 191 0;
#X connect 64 0 60 0;
#X connect 65 0 75 0;
#X connect 66 0 65 0;
#X connect 67 0 45 0;
#X connect 68 0 66 0;
#X connect 69 0 66 0;
#X connect 70 0 7 0;
#X connect 71 0 131 0;
#X connect 72 0 133 0;
#X connect 73 0 134 0;
#X connect 74 0 135 0;
#X connect 75 0 188 1;
#X connect 75 0 59 0;
#X connect 75 0 245 0;
#X connect 76 0 115 0;
#X connect 76 0 132 0;
#X connect 77 0 116 0;
#X connect 77 0 128 0;
#X connect 78 0 118 0;
#X connect 78 0 130 0;
#X connect 79 0 82 0;
#X connect 81 0 83 0;
#X connect 82 0 81 0;
#X connect 82 0 183 0;
#X connect 83 0 84 0;
#X connect 83 0 90 0;
#X connect 85 0 86 0;
#X connect 86 0 68 0;
#X connect 87 0 88 0;
#X connect 88 0 69 0;
#X connect 89 0 91 0;
#X connect 90 0 91 1;
#X connect 91 0 161 0;
#X connect 92 0 56 0;
#X connect 92 0 102 0;
#X connect 94 0 161 1;
#X connect 96 0 136 0;
#X connect 97 0 92 1;
#X connect 97 0 112 0;
#X connect 100 0 45 0;
#X connect 101 0 35 1;
#X connect 102 0 83 1;
#X connect 105 0 137 0;
#X connect 106 0 103 0;
#X connect 108 0 51 0;
#X connect 109 0 110 0;
#X connect 110 0 83 0;
#X connect 111 0 110 0;
#X connect 119 0 194 0;
#X connect 120 0 194 1;
#X connect 127 0 93 0;
#X connect 131 0 76 0;
#X connect 133 0 77 0;
#X connect 134 0 145 0;
#X connect 135 0 78 0;
#X connect 136 0 106 0;
#X connect 136 0 153 0;
#X connect 137 0 51 0;
#X connect 141 0 194 2;
#X connect 142 0 194 3;
#X connect 143 0 144 0;
#X connect 144 0 136 0;
#X connect 145 0 117 0;
#X connect 145 0 129 0;
#X connect 146 0 58 0;
#X connect 147 0 148 0;
#X connect 148 0 144 0;
#X connect 149 0 2 0;
#X connect 150 0 149 0;
#X connect 151 0 2 0;
#X connect 152 0 151 0;
#X connect 153 0 95 0;
#X connect 153 0 114 0;
#X connect 154 0 152 0;
#X connect 155 0 150 0;
#X connect 156 0 46 0;
#X connect 157 0 158 0;
#X connect 158 0 2 0;
#X connect 159 0 157 0;
#X connect 161 0 9 0;
#X connect 162 0 163 0;
#X connect 163 0 164 0;
#X connect 164 0 127 0;
#X connect 165 0 166 0;
#X connect 166 0 31 0;
#X connect 167 0 168 0;
#X connect 167 0 169 0;
#X connect 167 0 76 0;
#X connect 167 0 78 0;
#X connect 168 0 131 0;
#X connect 169 0 135 0;
#X connect 170 0 171 0;
#X connect 171 0 7 0;
#X connect 172 0 152 0;
#X connect 174 0 175 0;
#X connect 175 0 144 0;
#X connect 175 0 166 0;
#X connect 175 0 176 0;
#X connect 176 0 163 0;
#X connect 177 0 176 0;
#X connect 178 0 179 0;
#X connect 179 0 168 0;
#X connect 179 0 169 0;
#X connect 182 0 46 0;
#X connect 184 0 63 0;
#X connect 185 0 22 0;
#X connect 186 0 18 0;
#X connect 187 0 186 0;
#X connect 187 0 21 0;
#X connect 189 0 188 2;
#X connect 190 0 191 0;
#X connect 191 0 192 0;
#X connect 192 0 189 0;
#X connect 194 0 146 0;
#X connect 196 0 197 0;
#X connect 196 0 199 0;
#X connect 197 0 198 0;
#X connect 199 0 203 0;
#X connect 199 0 204 0;
#X connect 200 0 199 1;
#X connect 201 0 203 1;
#X connect 203 0 202 0;
#X connect 204 0 10 1;
#X connect 204 0 206 0;
#X connect 205 0 204 1;
#X connect 207 0 226 3;
#X connect 208 0 226 0;
#X connect 209 0 226 1;
#X connect 210 0 226 2;
#X connect 212 0 213 0;
#X connect 213 0 214 0;
#X connect 214 0 208 0;
#X connect 214 0 209 0;
#X connect 214 0 210 0;
#X connect 214 0 207 0;
#X connect 214 0 224 0;
#X connect 215 0 208 0;
#X connect 216 0 209 0;
#X connect 217 0 210 0;
#X connect 218 0 207 0;
#X connect 219 0 215 0;
#X connect 220 0 216 0;
#X connect 221 0 217 0;
#X connect 222 0 218 0;
#X connect 223 0 219 0;
#X connect 223 1 220 0;
#X connect 223 2 221 0;
#X connect 223 3 222 0;
#X connect 223 4 227 0;
#X connect 224 0 226 4;
#X connect 225 0 224 0;
#X connect 226 0 211 0;
#X connect 227 0 225 0;
#X connect 228 0 229 0;
#X connect 229 0 230 0;
#X connect 229 0 231 0;
#X connect 230 0 228 1;
#X connect 231 0 232 0;
#X connect 231 1 234 0;
#X connect 232 0 243 0;
#X connect 234 0 244 0;
#X connect 236 0 228 0;
#X connect 237 0 240 0;
#X connect 238 0 239 0;
#X connect 238 0 237 0;
#X connect 238 1 241 0;
#X connect 239 0 241 1;
#X connect 240 0 241 1;
#X connect 241 0 236 0;
#X connect 242 0 238 0;
#X connect 246 0 247 0;
#X connect 247 0 248 0;
#X connect 248 0 249 0;
#X connect 249 0 245 0;
#X connect 251 0 250 0;
#X connect 252 0 251 0;
#X coords 0 0 1 1 85 60 0;
