#N canvas -411 -1440 2522 1393 12;
#X obj 80 769 outlet~;
#X obj 155 769 outlet~;
#X obj 234 769 outlet~;
#X obj 307 769 outlet~;
#X obj 384 771 outlet~;
#X obj 1187 690 snapshot~;
#X obj 728 690 snapshot~;
#X obj 896 689 snapshot~;
#X obj 1064 687 snapshot~;
#X obj 841 778 print;
#X obj 1443 539 loadbang;
#X obj 1442 569 tgl 15 0 empty empty empty 17 7 0 10 -262144 -1 -1
1 1;
#X obj 1442 600 metro 100;
#X obj 230 483 clip~ 0 1;
#X obj 386 485 clip~ 0 1;
#X obj 569 483 clip~ 0 1;
#X obj 731 483 clip~ 0 1;
#X obj 231 452 expr~ 1 - ($v1 /0.806);
#X obj 390 452 expr~ 1 - ($v1 /0.806);
#X obj 567 449 expr~ 1 - ($v1 /0.806);
#X obj 731 445 expr~ 1 - ($v1 /0.806);
#X obj 391 414 adc~ 3 4 5 6 7;
#X obj 1383 695 snapshot~;
#X obj 927 488 clip~ 0 1;
#X obj 841 747 pack 0 0 0 0 0;
#X obj 927 450 expr~ ($v1 /0.806);
#X connect 5 0 24 3;
#X connect 6 0 24 0;
#X connect 7 0 24 1;
#X connect 8 0 24 2;
#X connect 10 0 11 0;
#X connect 11 0 12 0;
#X connect 12 0 6 0;
#X connect 12 0 7 0;
#X connect 12 0 8 0;
#X connect 12 0 5 0;
#X connect 12 0 22 0;
#X connect 13 0 6 0;
#X connect 13 0 0 0;
#X connect 14 0 7 0;
#X connect 14 0 1 0;
#X connect 15 0 8 0;
#X connect 15 0 2 0;
#X connect 16 0 5 0;
#X connect 16 0 3 0;
#X connect 17 0 13 0;
#X connect 18 0 14 0;
#X connect 19 0 15 0;
#X connect 20 0 16 0;
#X connect 21 0 17 0;
#X connect 21 1 18 0;
#X connect 21 2 19 0;
#X connect 21 3 20 0;
#X connect 21 4 25 0;
#X connect 22 0 24 4;
#X connect 23 0 22 0;
#X connect 23 0 4 0;
#X connect 24 0 9 0;
#X connect 25 0 23 0;
