#N canvas 18 -1440 2093 1418 12;
#X obj 366 248 > 0;
#X obj 366 284 sel 1 0;
#X obj 347 336 f;
#X obj 438 336 + 1;
#X obj 388 313 % 2;
#X obj 438 384 - 1;
#X obj 366 200 inlet;
#X obj 438 432 outlet;
#X connect 0 0 1 0;
#X connect 1 0 2 0;
#X connect 2 0 3 0;
#X connect 3 0 4 0;
#X connect 3 0 5 0;
#X connect 4 0 2 1;
#X connect 5 0 7 0;
#X connect 6 0 0 0;
